<?xml version="1.0" encoding="utf-8"?>
<!-- Generator: Adobe Illustrator 27.8.1, SVG Export Plug-In . SVG Version: 6.00 Build 0)  -->
<svg version="1.1" id="Ebene_2" xmlns="http://www.w3.org/2000/svg" xmlns:xlink="http://www.w3.org/1999/xlink" x="0px" y="0px"
	 viewBox="0 0 85.1 38.9" style="enable-background:new 0 0 85.1 38.9;" xml:space="preserve">
<style type="text/css">
	.st0{fill:#542791;}
</style>
<path id="path110" class="st0" d="M37.1,1.9v4.8h-7.2V14H25v10.9h4.8v7.3h7.2V37H48v-4.8h7.3v-7.3h4.8V14h-4.8V6.7H48V1.9
	C48,1.9,37.1,1.9,37.1,1.9z M38.3,3.1h8.5v3.6h-2.4v4.9h-3.6V6.7h-2.4C38.3,6.7,38.3,3.1,38.3,3.1z M31.1,8h6v4.8h2.4v3.6h-3.6V14
	h-4.8V8z M38.3,8h1.2v3.6h-1.2V8z M45.6,8h1.2v3.6h-1.2V8z M48,8h6.1v6h-4.9v2.4h-3.6v-3.6H48V8z M40.7,12.8h3.6v4.8h4.8v3.6h-4.8
	v4.8h-3.6v-4.8h-4.8v-3.6h4.8V12.8z M26.2,15.2h3.6v2.4h4.9v3.6h-4.9v2.4h-3.6V15.2z M31.1,15.2h3.6v1.2h-3.6
	C31.1,16.4,31.1,15.2,31.1,15.2z M50.4,15.2h3.6v1.2h-3.6V15.2z M55.3,15.2h3.6v8.5h-3.6v-2.4h-4.8v-3.6h4.8V15.2z M31.1,22.5h3.6
	v1.2h-3.6V22.5z M35.9,22.5h3.6v3.6h-2.4V31h-6v-6.1h4.8V22.5z M45.6,22.5h3.6v2.4h4.9V31H48v-4.9h-2.4V22.5z M50.4,22.5h3.6v1.2
	h-3.6V22.5z M38.3,27.3h1.2V31h-1.2V27.3z M40.7,27.3h3.6v4.8h2.4v3.6h-8.5v-3.6h2.4V27.3z M45.6,27.3h1.2V31h-1.2V27.3z"/>
</svg>
