<svg xmlns="http://www.w3.org/2000/svg" width="85.132" height="38.871" viewBox="0 0 22.525 10.285"><defs><clipPath clipPathUnits="userSpaceOnUse" id="a"><path d="M0 0h1280v1053.375H0z"/></clipPath></defs><g clip-path="url(#a)" transform="matrix(.35278 0 0 -.35278 -10.078 363.332)"><path d="M35.75 1021.661c1.033-.113 2.349-2.263 3.409-3.247.672 1.38.86 3.26.785 5.412 1.513-1.285.227-3.786 1.836-4.87.828 1.22 1.442 2.66 1.834 4.327.692-1.088-.131-3.742.525-4.869 1.183.943 1.993 2.175 2.883 3.517-.134-2.907-.783-2.85-.785-4.869 1.36.308 2.565.778 3.667 1.352.099-.739-1.584-1.965-2.36-2.705.8-.978 2.439-1.093 4.196-1.083-1.065-.85-1.984-.458-4.195-1.622 1.185-.763 2.312-1.583 3.933-1.894-.881-.625-2.804-.963-4.194-.27.742-2.146 2.69-2.092 3.408-3.788-2.125.133-3.533.803-4.455 2.163-.43-1.47.663-3.707 1.047-5.14-1.001.145-2.401 2.21-3.408 3.247-.666-1.59.079-3.554 0-5.14-1.334.967-1.748 3.103-2.36 4.6-1.12-1.385-1.953-2.852-2.881-4.329-.767 1.161.367 2.678 0 4.328-1.647-.824-2.98-1.615-4.195-2.706.06 1.993 2.006 2.607 2.622 4.6-1.913.13-3.388-.648-4.718-1.083.242 1.017 2.562 2.224 3.407 3.518-1.801.47-3.246-.215-5.765.27 1.207 1.28 4.17.744 5.503 1.895-1.26 1.393-2.94 1.34-4.717 2.975 1.942.26 3.293-.563 4.979-.54.046 1.022-1.116 2.941-2.097 3.786 1.98-.472 2.035-1.42 3.67-2.163.15 1.301-.932 3.182-1.573 4.328M72.876 1023.579c-5.5-1.673-8.91-3.125-8.856-9.38.033-3.82 2.381-5.584 4.545-7.261-15.58-.334-10.929 20.44 4.311 16.64" fill="#a39666"/></g><path d="M20.41 4.05l.576.694.904-.297-.42.674.555.665-.816.022-.168 1.082-.31-1.038-1.116-.2.894-.46zM18.59 6.767l-.49.763.987.886-1.357-.219-.721 1.035.05-1.241-1.219-.533 1.186-.159.017-1.135.642.88zM18.952 3.201l-.454.706.915.82-1.257-.202-.667.958.047-1.15-1.129-.491 1.097-.148.016-1.051.595.815M10.031 1.112l-.497.773 1.002.899L9.16 2.56l-.73 1.05.051-1.259-1.236-.54 1.201-.161L8.464.5l.65.893z" fill="#a39666"/></svg>