<?xml version="1.0" encoding="utf-8"?>
<!-- Generator: Adobe Illustrator 27.8.1, SVG Export Plug-In . SVG Version: 6.00 Build 0)  -->
<svg version="1.1" id="Ebene_2_00000091708175959691928020000007601631965780590757_"
	 xmlns="http://www.w3.org/2000/svg" xmlns:xlink="http://www.w3.org/1999/xlink" x="0px" y="0px" viewBox="0 0 85.1 38.9"
	 style="enable-background:new 0 0 85.1 38.9;" xml:space="preserve">
<style type="text/css">
	.st0{fill:#DABFFF;}
</style>
<g>
	<path class="st0" d="M35.8,7.5c6.6,0,12,5.4,12,12s-5.4,12-12,12s-12-5.4-12-12S29.2,7.5,35.8,7.5 M35.8,5.9
		c-7.5,0-13.6,6.1-13.6,13.6S28.3,33,35.8,33s13.6-6.1,13.6-13.6S43.3,5.9,35.8,5.9L35.8,5.9z"/>
</g>
<g>
	<path class="st0" d="M49.3,7.5c6.6,0,12,5.4,12,12s-5.4,12-12,12s-12-5.4-12-12S42.7,7.5,49.3,7.5 M49.3,5.9
		c-7.5,0-13.6,6.1-13.6,13.6S41.8,33,49.3,33s13.6-6.1,13.6-13.6S56.8,5.9,49.3,5.9L49.3,5.9z"/>
</g>
</svg>
